<svg width="512" height="512" viewBox="0 0 512 512" fill="none" xmlns="http://www.w3.org/2000/svg">
<path d="M243.793 7.7969C244.694 7.78984 245.594 7.78278 246.522 7.77551C284.356 7.54618 284.356 7.54618 301 11C302.491 11.306 302.491 11.306 304.012 11.6182C360.719 23.6107 415.728 54.011 451 101C451.736 101.978 451.736 101.978 452.487 102.976C459.963 112.963 466.91 123.11 473 134C473.398 134.701 473.796 135.403 474.206 136.126C492.454 168.528 504.007 206.43 504.204 243.793C504.211 244.693 504.218 245.594 504.225 246.522C504.454 284.356 504.454 284.356 501 301C500.694 302.491 500.694 302.491 500.382 304.011C486.306 370.572 447.888 427.83 391.03 465.298C386.77 468.015 382.409 470.534 378 473C377.299 473.398 376.598 473.796 375.875 474.206C343.472 492.454 305.57 504.007 268.207 504.203C266.857 504.214 266.857 504.214 265.479 504.225C227.645 504.454 227.645 504.454 211 501C209.51 500.694 209.51 500.694 207.989 500.382C141.495 486.32 84.0378 447.899 46.686 390.998C43.9848 386.743 41.471 382.392 39.0004 378C38.6403 377.374 38.2802 376.748 37.9091 376.103C19.404 343.782 8.0963 305.476 7.76216 268.129C7.75237 267.217 7.74257 266.305 7.73248 265.366C7.56081 245.238 7.72408 225.761 12.0004 206C12.2148 204.983 12.4291 203.966 12.6499 202.918C20.8306 165.051 37.7482 130.18 62.0004 100C62.4727 99.412 62.945 98.8241 63.4316 98.2183C74.5119 84.5778 86.9276 71.5638 101 61C101.652 60.5094 102.304 60.0187 102.976 59.5132C112.966 52.0351 123.124 45.1184 134 39C134.626 38.6399 135.252 38.2798 135.897 37.9087C168.138 19.4496 206.514 7.99271 243.793 7.7969Z" fill="#E5EBFF"/>
<path d="M269 304C269.802 304.01 270.604 304.02 271.43 304.031C289.909 304.283 309.512 308.088 327 314C327.817 314.267 328.634 314.533 329.475 314.808C361.88 325.401 391.098 340.645 417 363C417.768 363.657 418.537 364.315 419.328 364.992C430.082 374.429 440.526 384.526 449.5 395.688C450.194 396.533 450.194 396.533 450.902 397.395C452.726 399.746 453.928 401.644 454.52 404.578C453.815 407.861 452.375 409.523 450.188 412.063C449.363 413.024 448.538 413.986 447.688 414.977C446.794 415.986 445.898 416.994 445 418C444.134 418.977 443.267 419.954 442.375 420.961C423.68 441.79 402.48 459.309 378 473C377.299 473.398 376.597 473.796 375.875 474.206C343.472 492.454 305.57 504.007 268.207 504.203C266.856 504.214 266.856 504.214 265.478 504.225C227.644 504.454 227.644 504.454 211 501C210.006 500.796 209.013 500.592 207.989 500.382C150.451 488.214 97.5133 457.599 61 411C60.2369 410.153 59.4737 409.306 58.6875 408.434C57 406 57 406 57.0625 403.945C60.4418 396.933 66.6067 391.1 71.8086 385.414C73.774 383.249 75.6722 381.043 77.5625 378.813C80.4378 375.515 83.521 372.654 86.8594 369.832C89.1561 367.866 91.3513 365.811 93.5625 363.75C122.375 337.871 158.674 320.39 196 311C196.742 310.807 197.484 310.614 198.249 310.416C221.58 304.414 245.008 303.443 269 304Z" fill="#4294FF"/>
<circle cx="258.5" cy="175.5" r="98.5" fill="#4294FF"/>
</svg>
