<svg width="637" height="635" viewBox="0 0 637 635" fill="none" xmlns="http://www.w3.org/2000/svg">
<path d="M629.333 264L552 256C546.667 237.333 538.667 218.667 530.667 202.667L578.667 141.333C584 136 581.333 128 578.667 122.667L520 64C514.667 58.6667 506.667 58.6667 501.333 64L440 112C424 101.333 405.333 96 386.667 90.6667L378.667 13.3333C373.333 5.33333 368 0 362.667 0H280C272 0 266.667 5.33334 266.667 10.6667L258.667 88C240 93.3333 221.333 101.333 205.333 109.333L141.333 64C136 58.6667 128 61.3333 122.667 64L64 122.667C58.6667 128 58.6667 136 64 141.333L112 202.667C101.333 218.667 96 237.333 90.6667 256L13.3333 264C5.33333 266.667 0 272 0 277.333V360C0 368 5.33334 373.333 10.6667 373.333L88 381.333C93.3333 400 101.333 418.667 109.333 434.667L61.3333 496C56 501.333 58.6667 509.333 61.3333 514.667L120 573.333C125.333 578.667 133.333 578.667 138.667 573.333L200 525.333C216 536 234.667 541.333 253.333 546.667L261.333 624C261.333 632 266.667 634.667 274.667 634.667H357.333C365.333 634.667 370.667 629.333 370.667 624L378.667 546.667C397.333 541.333 416 533.333 432 525.333L493.333 573.333C498.667 578.667 506.667 576 512 573.333L570.667 514.667C576 509.333 576 501.333 570.667 496L522.667 434.667C533.333 418.667 538.667 400 544 381.333L621.333 373.333C629.333 373.333 632 368 632 360V277.333C640 272 634.667 266.667 629.333 264ZM320 426.667C261.333 426.667 213.333 378.667 213.333 320C213.333 261.333 261.333 213.333 320 213.333C378.667 213.333 426.667 261.333 426.667 320C426.667 378.667 378.667 426.667 320 426.667Z" fill="#0B5ED7"/>
</svg>
