<svg width="48" height="48" viewBox="0 0 48 48" fill="none" xmlns="http://www.w3.org/2000/svg">
<path d="M35.5782 15.7031C35.5782 9.28125 30.3751 4.07812 23.9532 4.07812C17.5313 4.07812 12.3282 9.28125 12.3282 15.7031C12.3282 19.5844 14.2313 23.025 17.1563 25.1344C17.1376 25.1438 17.1235 25.1484 17.1142 25.1531C15.0188 26.0391 13.1392 27.3094 11.522 28.9313C9.90478 30.5484 8.63916 32.4328 7.75322 34.5328C6.88603 36.5859 6.42197 38.7656 6.3751 41.0062C6.37041 41.2172 6.53916 41.3906 6.7501 41.3906H9.55791C9.75947 41.3906 9.92822 41.2266 9.93291 41.025C10.0267 37.4063 11.4751 34.0172 14.0392 31.4484C16.6876 28.7906 20.2032 27.3281 23.9532 27.3281C30.3751 27.3281 35.5782 22.125 35.5782 15.7031ZM23.9532 23.7656C19.5001 23.7656 15.8907 20.1562 15.8907 15.7031C15.8907 11.25 19.5001 7.64062 23.9532 7.64062C28.4063 7.64062 32.0157 11.25 32.0157 15.7031C32.0157 20.1562 28.4063 23.7656 23.9532 23.7656ZM28.8751 34.125H41.2501C41.4563 34.125 41.6251 33.9563 41.6251 33.75V31.125C41.6251 30.9187 41.4563 30.75 41.2501 30.75H32.9767L35.1892 27.9328C35.2407 27.8672 35.2688 27.7828 35.2688 27.7031C35.2688 27.4969 35.1001 27.3281 34.8938 27.3281H31.4907C31.261 27.3281 31.0454 27.4359 30.9001 27.6141L27.6892 31.6969C27.4829 31.9594 27.3704 32.2875 27.3704 32.625C27.3751 33.4547 28.0454 34.125 28.8751 34.125ZM40.1251 37.125H27.7501C27.5438 37.125 27.3751 37.2937 27.3751 37.5V40.125C27.3751 40.3313 27.5438 40.5 27.7501 40.5H36.0235L33.811 43.3172C33.7595 43.3828 33.7313 43.4672 33.7313 43.5469C33.7313 43.7531 33.9001 43.9219 34.1063 43.9219H37.5095C37.7392 43.9219 37.9548 43.8141 38.1001 43.6359L41.311 39.5531C41.5173 39.2906 41.6298 38.9625 41.6298 38.625C41.6251 37.7953 40.9548 37.125 40.1251 37.125Z" fill="#007BFF"/>
</svg>
